<?xml version="1.0" encoding="utf-8"?>
<!-- Generator: Adobe Illustrator 26.3.1, SVG Export Plug-In . SVG Version: 6.00 Build 0)  -->
<svg version="1.1" id="Layer_1" xmlns="http://www.w3.org/2000/svg" xmlns:xlink="http://www.w3.org/1999/xlink" x="0px" y="0px"
	 viewBox="0 0 512 512" style="enable-background:new 0 0 512 512;" xml:space="preserve">
<style type="text/css">
	.st0{fill:#E3E3E3;}
	.st1{fill:#678FFF;}
</style>
<g id="그룹_1992">
	<g id="그룹_1989_00000000937341694822490390000003876688821980288938_">
		<path id="패스_1947_00000064328619274607374150000014315556893069424290_" class="st0" d="M129.9,24.7h252.3
			c58.1,0,105.1,69,105.1,154.2v154.2c0,85.1-47.1,154.2-105.1,154.2H129.9c-58.1,0-105.1-69-105.1-154.2V178.9
			C24.7,93.8,71.8,24.7,129.9,24.7z"/>
	</g>
</g>
<g id="그룹_2087" transform="translate(1.754 1.345)">
	<path id="사각형_1407" class="st1" d="M219.4,234.8h157.3c7.7,0,13.9,6.2,13.9,13.9V264c0,7.7-6.2,13.9-13.9,13.9H219.4
		c-7.7,0-13.9-6.2-13.9-13.9v-15.2C205.5,241,211.7,234.8,219.4,234.8z"/>
	<path id="사각형_1408" class="st1" d="M219.4,331.8h157.3c7.7,0,13.9,6.2,13.9,13.9V361c0,7.7-6.2,13.9-13.9,13.9H219.4
		c-7.7,0-13.9-6.2-13.9-13.9v-15.2C205.5,338.1,211.7,331.8,219.4,331.8z"/>
	<g id="그룹_2086" transform="translate(5.077 6)">
		<g id="그룹_2085" transform="translate(4.425) rotate(90)">
			<circle id="타원_219" class="st1" cx="150.2" cy="-139.2" r="30.7"/>
			<circle id="타원_220" class="st1" cx="248.7" cy="-139.2" r="30.7"/>
			<circle id="타원_221" class="st1" cx="347.1" cy="-139.2" r="30.7"/>
		</g>
		<path id="사각형_1409" class="st1" d="M214.3,130.4h157.3c7.7,0,13.9,6.2,13.9,13.9v15.2c0,7.7-6.2,13.9-13.9,13.9H214.3
			c-7.7,0-13.9-6.2-13.9-13.9v-15.2C200.4,136.6,206.7,130.4,214.3,130.4z"/>
	</g>
</g>
</svg>
