<?xml version="1.0" encoding="utf-8"?>
<!-- Generator: Adobe Illustrator 26.2.1, SVG Export Plug-In . SVG Version: 6.00 Build 0)  -->
<svg version="1.1" id="Layer_1" xmlns="http://www.w3.org/2000/svg" xmlns:xlink="http://www.w3.org/1999/xlink" x="0px" y="0px"
	 viewBox="0 0 512 512" style="enable-background:new 0 0 512 512;" xml:space="preserve">
<style type="text/css">
	.st0{fill:#E3E3E3;}
	.st1{fill:#678FFF;}
</style>
<g id="그룹_1989" transform="translate(-1633.733 -137)">
	<path id="패스_1947" class="st0" d="M1763.6,161.7h252.3c58.1,0,105.1,69,105.1,154.2v154.2c0,85.2-47.1,154.2-105.1,154.2
		h-252.3c-58.1,0-105.1-69-105.1-154.2V315.9C1658.4,230.7,1705.5,161.7,1763.6,161.7z"/>
</g>
<g id="그룹_1988" transform="translate(7.521 7.159)">
	<path id="패스_1966" class="st1" d="M377,145.4l-25.2-25.3c-2.2-2.2-5.1-3-6.5-1.6l-29.8,29.9l33.3,33.4l29.8-29.9
		C380,150.5,379.2,147.7,377,145.4"/>
	<path id="합치기_2" class="st1" d="M118,374.2l15.2-40c0.2-0.6,0.6-1.2,1.2-1.7l-0.1-0.1l171.7-171.7l31,31L165.3,363.4
		l-0.3-0.3c-0.5,0.5-1,0.9-1.7,1.2l-40,15.2c-0.5,0.2-1,0.3-1.5,0.3c-2.3,0-4.2-1.9-4.2-4.2C117.7,375.2,117.8,374.7,118,374.2z"/>
</g>
</svg>
